<svg width="593" height="637" viewBox="0 0 593 637" fill="none" xmlns="http://www.w3.org/2000/svg">
<path d="M315.348 0.150677C319.46 0.100968 323.571 0.051259 327.807 4.37858e-05C365.681 -0.0183885 400.889 5.78108 435.376 20.3957C437.639 21.3372 439.901 22.2787 442.233 23.2487C507.011 50.8696 554.82 93.3858 590.919 149.494C592.755 155.363 592.755 155.363 590.814 161.665C584.699 169.398 578.248 172.972 569.253 177.729C564.787 180.139 564.787 180.139 560.23 182.597C552.466 186.212 552.466 186.212 545.751 186.212C540.947 179.736 536.502 173.254 532.112 166.546C489.646 104.309 431.457 70.8621 354.378 53.5591C291.123 41.8571 227.856 54.1195 173.077 84.4087C162.456 91.0995 152.641 98.3189 142.861 106.003C140.883 107.344 138.905 108.684 136.867 110.064C95.0266 139.402 69.0996 192.57 58.9251 238.657C57.4474 251.67 57.1626 264.527 57.2464 277.604C57.2656 281.113 57.2848 284.621 57.3046 288.235C58.7735 352.424 86.8945 403.721 136.146 448.434C138.106 450.267 140.067 452.101 142.087 453.989C195.843 500.382 263.153 509.524 333.709 507.669C357.096 506.299 378.995 500.72 401.382 494.708C406.922 493.69 412.462 492.672 418.169 491.624C418.169 389.82 418.169 288.016 418.169 183.127C437.004 183.127 455.839 183.127 475.245 183.127C475.245 332.779 475.245 482.43 475.245 636.617C451.404 631.14 431.747 612.015 418.169 593.427C413.889 579.635 413.266 567.548 414.812 553.323C397.162 555.17 397.162 555.17 379.677 557.986C292.118 574.262 205.718 556.5 131.464 511.423C69.6372 469.353 27.5332 412.127 8.56376 343.545C7.42768 339.591 7.42768 339.591 6.26865 335.556C-11.2183 263.638 9.35303 190.501 49.6922 128.369C87.337 76.9478 140.649 37.8014 203.504 15.5755C205.6 14.8271 207.695 14.0787 209.854 13.3077C244.377 1.73884 278.875 0.0630376 315.348 0.150677Z" fill="#0A0A0A"/>
<path d="M315.348 0.150677C319.46 0.100968 323.571 0.051259 327.807 4.37858e-05C365.681 -0.0183885 400.889 5.78108 435.376 20.3957C437.639 21.3372 439.901 22.2787 442.233 23.2487C507.011 50.8696 554.82 93.3858 590.919 149.494C592.755 155.363 592.755 155.363 590.814 161.665C584.699 169.398 578.248 172.972 569.253 177.729C564.787 180.139 564.787 180.139 560.23 182.597C552.466 186.212 552.466 186.212 545.751 186.212C540.947 179.736 536.502 173.254 532.112 166.546C489.646 104.309 431.457 70.8621 354.378 53.5591C291.123 41.8571 227.856 54.1195 173.077 84.4087C162.456 91.0995 152.641 98.3189 142.861 106.003C140.883 107.344 138.905 108.684 136.867 110.064C95.0266 139.402 69.0996 192.57 58.9251 238.657C57.4474 251.67 57.1626 264.527 57.2464 277.604C57.2656 281.113 57.2848 284.621 57.3046 288.235C58.7735 352.424 86.8945 403.721 136.146 448.434C138.106 450.267 140.067 452.101 142.087 453.989C195.843 500.382 263.153 509.524 333.709 507.669C357.096 506.299 378.995 500.72 401.382 494.708C406.922 493.69 412.462 492.672 418.169 491.624C418.169 389.82 418.169 288.016 418.169 183.127C437.004 183.127 455.839 183.127 475.245 183.127C475.245 332.779 475.245 482.43 475.245 636.617C451.404 631.14 431.747 612.015 418.169 593.427C413.889 579.635 413.266 567.548 414.812 553.323C397.162 555.17 397.162 555.17 379.677 557.986C292.118 574.262 205.718 556.5 131.464 511.423C69.6372 469.353 27.5332 412.127 8.56376 343.545C7.42768 339.591 7.42768 339.591 6.26865 335.556C-11.2183 263.638 9.35303 190.501 49.6922 128.369C87.337 76.9478 140.649 37.8014 203.504 15.5755C205.6 14.8271 207.695 14.0787 209.854 13.3077C244.377 1.73884 278.875 0.0630376 315.348 0.150677Z" fill="black" fill-opacity="0.2"/>
<path d="M315.348 0.150677C319.46 0.100968 323.571 0.051259 327.807 4.37858e-05C365.681 -0.0183885 400.889 5.78108 435.376 20.3957C437.639 21.3372 439.901 22.2787 442.233 23.2487C507.011 50.8696 554.82 93.3858 590.919 149.494C592.755 155.363 592.755 155.363 590.814 161.665C584.699 169.398 578.248 172.972 569.253 177.729C564.787 180.139 564.787 180.139 560.23 182.597C552.466 186.212 552.466 186.212 545.751 186.212C540.947 179.736 536.502 173.254 532.112 166.546C489.646 104.309 431.457 70.8621 354.378 53.5591C291.123 41.8571 227.856 54.1195 173.077 84.4087C162.456 91.0995 152.641 98.3189 142.861 106.003C140.883 107.344 138.905 108.684 136.867 110.064C95.0266 139.402 69.0996 192.57 58.9251 238.657C57.4474 251.67 57.1626 264.527 57.2464 277.604C57.2656 281.113 57.2848 284.621 57.3046 288.235C58.7735 352.424 86.8945 403.721 136.146 448.434C138.106 450.267 140.067 452.101 142.087 453.989C195.843 500.382 263.153 509.524 333.709 507.669C357.096 506.299 378.995 500.72 401.382 494.708C406.922 493.69 412.462 492.672 418.169 491.624C418.169 389.82 418.169 288.016 418.169 183.127C437.004 183.127 455.839 183.127 475.245 183.127C475.245 332.779 475.245 482.43 475.245 636.617C451.404 631.14 431.747 612.015 418.169 593.427C413.889 579.635 413.266 567.548 414.812 553.323C397.162 555.17 397.162 555.17 379.677 557.986C292.118 574.262 205.718 556.5 131.464 511.423C69.6372 469.353 27.5332 412.127 8.56376 343.545C7.42768 339.591 7.42768 339.591 6.26865 335.556C-11.2183 263.638 9.35303 190.501 49.6922 128.369C87.337 76.9478 140.649 37.8014 203.504 15.5755C205.6 14.8271 207.695 14.0787 209.854 13.3077C244.377 1.73884 278.875 0.0630376 315.348 0.150677Z" fill="black" fill-opacity="0.2"/>
<path d="M545.751 368.225C563.58 372.73 577.523 380.513 592.755 389.82C587.124 422.57 563.464 447.052 539.036 470.029C535.297 473.644 535.297 473.644 531.482 477.331C513.652 494.257 513.652 494.257 502.105 497.793C496.501 431.847 496.501 431.847 516.374 408.715C521.669 403.428 526.983 398.156 532.321 392.905C537.57 384.829 541.605 376.838 545.751 368.225Z" fill="#0A0A0A"/>
<path d="M545.751 368.225C563.58 372.73 577.523 380.513 592.755 389.82C587.124 422.57 563.464 447.052 539.036 470.029C535.297 473.644 535.297 473.644 531.482 477.331C513.652 494.257 513.652 494.257 502.105 497.793C496.501 431.847 496.501 431.847 516.374 408.715C521.669 403.428 526.983 398.156 532.321 392.905C537.57 384.829 541.605 376.838 545.751 368.225Z" fill="black" fill-opacity="0.2"/>
<path d="M545.751 368.225C563.58 372.73 577.523 380.513 592.755 389.82C587.124 422.57 563.464 447.052 539.036 470.029C535.297 473.644 535.297 473.644 531.482 477.331C513.652 494.257 513.652 494.257 502.105 497.793C496.501 431.847 496.501 431.847 516.374 408.715C521.669 403.428 526.983 398.156 532.321 392.905C537.57 384.829 541.605 376.838 545.751 368.225Z" fill="black" fill-opacity="0.2"/>
<path d="M418.169 183.127C437.004 183.127 455.839 183.127 475.245 183.127C475.245 185.163 475.245 187.199 475.245 189.297C473.029 189.297 470.814 189.297 468.531 189.297C468.531 202.532 468.531 215.766 468.531 229.402C467.423 229.402 466.315 229.402 465.173 229.402C462.056 216.035 462.056 205.749 465.173 192.382C452.986 192.382 440.798 192.382 428.241 192.382C428.523 196.14 428.804 199.898 429.094 203.77C429.441 208.779 429.786 213.788 430.13 218.797C430.318 221.265 430.507 223.732 430.701 226.275C431.699 241.253 431.155 254.733 428.241 269.506C427.134 269.506 426.026 269.506 424.884 269.506C424.884 243.037 424.884 216.568 424.884 189.297C422.668 189.297 420.452 189.297 418.169 189.297C418.169 187.261 418.169 185.225 418.169 183.127Z" fill="#0A0A0A"/>
<path d="M418.169 183.127C437.004 183.127 455.839 183.127 475.245 183.127C475.245 185.163 475.245 187.199 475.245 189.297C473.029 189.297 470.814 189.297 468.531 189.297C468.531 202.532 468.531 215.766 468.531 229.402C467.423 229.402 466.315 229.402 465.173 229.402C462.056 216.035 462.056 205.749 465.173 192.382C452.986 192.382 440.798 192.382 428.241 192.382C428.523 196.14 428.804 199.898 429.094 203.77C429.441 208.779 429.786 213.788 430.13 218.797C430.318 221.265 430.507 223.732 430.701 226.275C431.699 241.253 431.155 254.733 428.241 269.506C427.134 269.506 426.026 269.506 424.884 269.506C424.884 243.037 424.884 216.568 424.884 189.297C422.668 189.297 420.452 189.297 418.169 189.297C418.169 187.261 418.169 185.225 418.169 183.127Z" fill="black" fill-opacity="0.2"/>
<path d="M418.169 183.127C437.004 183.127 455.839 183.127 475.245 183.127C475.245 185.163 475.245 187.199 475.245 189.297C473.029 189.297 470.814 189.297 468.531 189.297C468.531 202.532 468.531 215.766 468.531 229.402C467.423 229.402 466.315 229.402 465.173 229.402C462.056 216.035 462.056 205.749 465.173 192.382C452.986 192.382 440.798 192.382 428.241 192.382C428.523 196.14 428.804 199.898 429.094 203.77C429.441 208.779 429.786 213.788 430.13 218.797C430.318 221.265 430.507 223.732 430.701 226.275C431.699 241.253 431.155 254.733 428.241 269.506C427.134 269.506 426.026 269.506 424.884 269.506C424.884 243.037 424.884 216.568 424.884 189.297C422.668 189.297 420.452 189.297 418.169 189.297C418.169 187.261 418.169 185.225 418.169 183.127Z" fill="black" fill-opacity="0.2"/>
<path d="M52.2102 303.441C53.3181 303.441 54.4261 303.441 55.5676 303.441C56.6755 314.639 57.7835 325.838 58.925 337.375C56.7091 337.375 54.4932 337.375 52.2102 337.375C47.8935 314.459 47.8935 314.459 52.2102 303.441Z" fill="#0A0A0A"/>
<path d="M52.2102 303.441C53.3181 303.441 54.4261 303.441 55.5676 303.441C56.6755 314.639 57.7835 325.838 58.925 337.375C56.7091 337.375 54.4932 337.375 52.2102 337.375C47.8935 314.459 47.8935 314.459 52.2102 303.441Z" fill="black" fill-opacity="0.2"/>
<path d="M52.2102 303.441C53.3181 303.441 54.4261 303.441 55.5676 303.441C56.6755 314.639 57.7835 325.838 58.925 337.375C56.7091 337.375 54.4932 337.375 52.2102 337.375C47.8935 314.459 47.8935 314.459 52.2102 303.441Z" fill="black" fill-opacity="0.2"/>
<path d="M45.4953 143.023C47.7112 146.077 49.9271 149.131 52.2102 152.278C46.6704 160.422 41.1307 168.566 35.423 176.957C32.0656 167.703 32.0656 167.703 34.6755 161.4C35.9609 159.217 37.2463 157.034 38.5706 154.784C39.8474 152.577 41.1241 150.37 42.4395 148.096C43.4479 146.422 44.4563 144.748 45.4953 143.023Z" fill="#0A0A0A"/>
<path d="M45.4953 143.023C47.7112 146.077 49.9271 149.131 52.2102 152.278C46.6704 160.422 41.1307 168.566 35.423 176.957C32.0656 167.703 32.0656 167.703 34.6755 161.4C35.9609 159.217 37.2463 157.034 38.5706 154.784C39.8474 152.577 41.1241 150.37 42.4395 148.096C43.4479 146.422 44.4563 144.748 45.4953 143.023Z" fill="black" fill-opacity="0.2"/>
<path d="M45.4953 143.023C47.7112 146.077 49.9271 149.131 52.2102 152.278C46.6704 160.422 41.1307 168.566 35.423 176.957C32.0656 167.703 32.0656 167.703 34.6755 161.4C35.9609 159.217 37.2463 157.034 38.5706 154.784C39.8474 152.577 41.1241 150.37 42.4395 148.096C43.4479 146.422 44.4563 144.748 45.4953 143.023Z" fill="black" fill-opacity="0.2"/>
<circle cx="181" cy="164" r="21" fill="#0A0A0A"/>
<circle cx="181" cy="164" r="21" fill="black" fill-opacity="0.2"/>
<circle cx="181" cy="164" r="21" fill="black" fill-opacity="0.2"/>
<circle cx="296" cy="122" r="21" fill="#0A0A0A"/>
<circle cx="296" cy="122" r="21" fill="black" fill-opacity="0.2"/>
<circle cx="296" cy="122" r="21" fill="black" fill-opacity="0.2"/>
<circle cx="126" cy="282" r="21" fill="#0A0A0A"/>
<circle cx="126" cy="282" r="21" fill="black" fill-opacity="0.2"/>
<circle cx="126" cy="282" r="21" fill="black" fill-opacity="0.2"/>
<circle cx="181" cy="389" r="21" fill="#0A0A0A"/>
<circle cx="181" cy="389" r="21" fill="black" fill-opacity="0.2"/>
<circle cx="181" cy="389" r="21" fill="black" fill-opacity="0.2"/>
<circle cx="296" cy="454" r="21" fill="#0A0A0A"/>
<circle cx="296" cy="454" r="21" fill="black" fill-opacity="0.2"/>
<circle cx="296" cy="454" r="21" fill="black" fill-opacity="0.2"/>
</svg>
